<svg xmlns="http://www.w3.org/2000/svg" width="150" height="50" viewBox="0,0,150,50"><path fill="#222" d="M25.79 28.88L25.88 28.97L25.81 28.90Q23.18 28.82 22.15 30.00L22.29 30.14L22.27 30.12Q21.13 31.19 21.13 33.82L21.22 33.90L21.24 33.93Q21.18 38.96 25.78 38.77L25.75 38.74L25.89 38.88Q27.97 39.05 29.32 37.49L29.35 37.52L29.28 37.45Q30.59 35.85 30.37 33.80L30.48 33.91L30.38 33.82Q30.40 31.28 29.53 30.26L29.53 30.26L29.47 30.20Q27.95 28.83 25.74 28.83ZM30.95 38.80L30.78 38.63L30.80 38.65Q29.71 41.22 25.03 41.22L25.01 41.19L23.53 41.16L23.50 41.13Q21.27 41.27 20.17 40.12L20.13 40.08L20.02 39.98Q19.06 39.01 18.79 36.62L18.69 36.51L18.76 36.59Q18.69 35.18 18.61 33.39L18.63 33.41L18.63 33.41Q18.49 32.31 18.33 30.37L18.43 30.47L18.39 30.43Q18.35 26.20 23.53 26.20L23.39 26.06L25.07 26.18L24.99 26.10Q27.86 26.07 29.95 27.37L29.99 27.41L29.94 27.36Q30.84 27.95 31.34 28.64L31.35 28.65L31.20 28.51Q31.47 27.71 32.00 26.07L32.13 26.20L32.14 26.21Q33.28 25.94 35.60 25.33L35.71 25.44L35.60 25.32Q33.04 29.58 33.04 34.83L33.06 34.86L32.95 34.74Q32.94 38.47 34.31 41.55L34.50 41.74L34.47 41.70Q33.17 41.24 31.26 41.02L31.39 41.14L31.34 41.09Q31.07 40.18 30.77 38.61ZM34.22 43.97L34.16 43.91L36.44 44.55L36.47 44.58Q37.66 44.86 38.65 45.32L38.63 45.30L38.62 45.28Q34.98 40.96 34.98 34.87L35.01 34.90L34.98 34.87Q34.86 30.22 36.99 26.41L37.15 26.57L37.16 26.58Q36.37 26.66 35.03 27.04L35.10 27.11L35.07 27.08Q35.51 26.41 36.38 24.89L36.36 24.87L36.23 24.74Q35.79 25.06 31.79 25.89L31.66 25.76L31.25 27.75L31.24 27.74Q29.35 25.89 24.93 25.66L24.97 25.70L24.98 25.71Q23.92 25.79 21.67 25.94L21.69 25.97L21.66 25.93Q17.91 26.21 18.02 30.25L17.96 30.18L17.93 30.16Q18.08 33.50 18.65 37.96L18.62 37.93L18.77 38.49L18.80 38.53Q18.86 39.31 19.66 40.41L19.64 40.39L19.76 40.52Q19.75 40.50 19.94 40.61L19.92 40.59L20.01 40.69Q20.21 41.11 20.59 41.69L20.72 41.82L20.63 41.73Q22.05 43.26 25.44 43.45L25.49 43.50L25.37 43.39Q27.14 43.64 27.30 43.64L27.20 43.54L28.83 43.61L28.89 43.67Q32.04 43.62 33.26 42.06L33.27 42.07L33.13 41.93Q33.61 42.68 34.22 43.98ZM27.68 31.23L27.65 31.20L27.54 31.09Q29.04 31.25 29.87 31.71L29.72 31.55L29.75 31.58Q30.00 32.33 30.00 33.77L30.10 33.87L30.01 33.79Q30.30 35.79 29.02 37.22L29.06 37.25L29.03 37.22Q27.73 38.62 25.83 38.43L25.77 38.38L25.79 38.39Q24.38 38.43 23.35 38.01L23.27 37.93L23.39 38.06Q23.17 37.19 23.17 35.97L23.10 35.90L23.07 35.87Q23.29 32.43 25.92 31.48L25.97 31.53L25.88 31.45Q26.90 31.25 27.70 31.25Z"/><path d="M17 3 C59 45,64 20,137 27" stroke="#666" fill="none"/><path fill="#333" d="M56.47 40.24L56.48 40.25L54.04 33.36L53.96 33.27Q49.56 20.65 43.62 14.25L43.72 14.36L43.75 14.39Q45.63 15.31 48.22 15.92L48.37 16.08L48.26 15.96Q53.43 22.27 57.77 35.02L57.83 35.09L57.88 35.14Q60.84 26.94 61.52 25.34L61.54 25.36L61.51 25.33Q63.86 19.68 66.68 16.37L66.77 16.46L66.66 16.36Q68.79 16.05 71.42 15.18L71.34 15.10L71.32 15.08Q66.84 19.77 63.79 27.00L63.79 27.00L63.81 27.02Q62.33 30.61 58.64 40.13L58.71 40.20L58.77 40.26Q58.08 40.13 57.51 40.10L57.57 40.16L57.63 40.22Q57.06 40.22 56.49 40.26ZM61.40 42.58L61.41 42.59L61.42 42.60Q64.14 32.53 65.70 28.49L65.72 28.52L65.84 28.64Q68.73 20.83 73.15 15.96L73.13 15.94L73.31 16.11Q72.15 16.37 70.06 17.09L70.05 17.08L71.18 15.74L71.29 15.85Q71.75 15.05 72.36 14.40L72.31 14.36L72.37 14.42Q69.50 15.35 66.49 15.92L66.59 16.02L66.56 15.99Q62.11 21.25 58.23 32.71L58.38 32.86L58.36 32.84Q54.63 22.64 51.43 18.26L51.42 18.25L51.44 18.27Q51.06 18.20 50.19 18.04L50.26 18.12L50.26 18.12Q50.06 17.77 48.46 15.71L48.38 15.62L48.38 15.63Q45.40 14.89 42.69 13.48L42.71 13.50L42.65 13.44Q49.31 20.56 53.69 33.35L53.67 33.33L53.62 33.28Q55.01 37.10 56.19 40.68L56.16 40.66L56.10 40.59Q56.59 40.77 57.42 40.66L57.36 40.60L57.28 40.52Q57.63 41.21 58.32 42.55L58.38 42.60L58.28 42.51Q59.18 42.49 59.90 42.57L60.02 42.68L60.02 42.68Q60.70 42.64 61.46 42.64Z"/><path fill="#444" d="M116.74 28.86L116.75 28.87L116.73 28.85Q114.14 28.77 112.85 29.92L112.93 30.00L112.77 29.84Q111.40 31.13 111.59 33.64L111.54 33.60L111.52 33.57Q111.78 36.50 112.96 37.56L113.02 37.62L113.12 37.73Q114.44 38.86 116.54 38.71L116.57 38.74L116.64 38.81Q118.67 38.71 120.08 37.46L120.20 37.58L120.23 37.60Q121.50 36.40 121.69 33.85L121.66 33.82L121.76 33.92Q122.05 28.92 116.68 28.80ZM116.49 41.29L116.61 41.41L115.00 41.36L114.95 41.31Q112.13 41.34 110.64 39.93L110.60 39.89L110.59 39.88Q109.60 38.85 109.33 36.91L109.30 36.88L109.44 37.02Q109.13 35.75 108.98 33.54L109.17 33.74L109.01 33.58Q108.96 32.62 108.85 30.37L108.97 30.49L108.91 30.43Q108.78 28.52 109.73 27.37L109.84 27.48L109.71 27.35Q111.53 25.94 116.25 26.09L116.29 26.13L116.33 26.16Q121.20 26.28 123.03 27.80L122.95 27.72L123.03 27.80Q124.52 29.03 124.33 32.22L124.24 32.13L124.33 32.23Q124.09 35.75 124.01 36.17L123.97 36.13L124.02 36.18Q123.58 38.33 122.25 39.51L122.31 39.57L122.36 39.62Q120.37 41.36 116.57 41.36ZM121.29 43.80L121.31 43.83L121.22 43.73Q122.63 43.69 124.53 43.54L124.58 43.59L124.69 43.70Q125.08 43.52 125.08 43.37L125.19 43.48L125.19 43.48Q125.05 43.26 125.01 43.11L125.05 43.15L125.01 43.11Q124.92 42.91 124.92 42.79L124.94 42.81L125.04 42.91Q125.10 42.71 125.45 42.40L125.41 42.36L125.30 42.25Q126.22 41.16 126.22 39.26L126.18 39.22L126.33 39.36Q126.31 38.39 126.21 35.97L126.09 35.85L126.14 35.90Q125.99 33.43 125.84 32.33L125.90 32.39L125.85 32.34Q125.51 30.24 124.59 29.10L124.58 29.08L124.35 28.97L124.34 28.96Q124.15 28.28 123.35 27.37L123.34 27.36L123.27 27.28Q121.02 25.61 116.11 25.61L116.11 25.60L114.37 25.61L114.32 25.56Q111.10 25.65 109.38 27.02L109.34 26.98L109.29 26.93Q108.56 28.18 108.60 30.20L108.56 30.16L108.53 30.13Q108.65 30.67 108.79 31.93L108.67 31.81L108.73 31.87Q108.94 33.21 108.90 33.66L108.87 33.63L108.77 33.53Q109.00 36.58 109.08 37.03L109.05 37.01L109.07 37.02Q109.37 39.08 110.29 40.22L110.42 40.35L110.47 40.48L110.58 40.60Q111.32 42.97 115.06 43.39L115.16 43.49L115.06 43.40Q115.95 43.53 121.20 43.72ZM118.53 31.11L118.49 31.06L118.43 31.01Q119.42 31.16 121.09 31.69L121.08 31.68L121.16 31.75Q121.39 32.37 121.35 33.85L121.33 33.83L121.35 33.85Q121.34 37.42 118.45 38.18L118.31 38.04L118.37 38.11Q117.72 38.36 116.69 38.48L116.68 38.47L116.52 38.31Q115.60 38.49 113.88 37.88L113.79 37.79L113.88 37.87Q113.69 37.23 113.73 35.75L113.67 35.69L113.67 35.69Q113.70 33.32 115.07 32.29L115.18 32.40L115.05 32.27Q115.90 31.33 118.45 31.03Z"/><path fill="#444" d="M83.69 14.07L83.71 14.08L83.69 14.07Q84.53 15.97 86.20 16.31L86.29 16.40L86.25 16.36Q86.90 16.59 87.58 16.40L87.49 16.30L87.50 16.31Q87.27 22.21 87.19 28.08L87.31 28.19L87.17 28.05Q87.17 33.87 87.39 39.81L87.51 39.93L87.37 39.78Q87.17 39.82 86.86 39.82L86.89 39.84L86.93 39.88Q85.28 39.79 83.98 41.61L84.05 41.68L83.93 41.57Q84.71 34.73 84.67 27.88L84.66 27.87L84.67 27.88Q84.53 20.92 83.70 14.07ZM83.65 42.85L83.54 42.73L83.65 42.84Q84.72 41.02 85.78 40.56L85.64 40.41L85.74 40.52Q85.59 41.47 85.59 42.46L85.70 42.57L85.71 42.59Q86.37 42.14 87.17 42.25L87.16 42.25L87.26 42.35Q89.17 42.54 90.38 45.24L90.46 45.31L90.33 45.18Q89.31 37.80 89.31 30.34L89.25 30.28L89.28 30.31Q89.17 22.48 90.01 15.17L89.98 15.14L90.00 15.16Q89.08 17.13 87.94 17.74L88.02 17.83L87.93 17.73Q87.97 16.74 88.04 15.68L88.09 15.72L87.94 15.58Q87.23 16.16 86.47 16.00L86.43 15.97L86.48 16.01Q84.14 15.46 83.15 12.61L83.33 12.79L83.19 12.65Q84.31 20.24 84.38 27.78L84.29 27.68L84.25 27.64Q84.44 35.22 83.57 42.76Z"/></svg>
